<mxfile host="app.diagrams.net" agent="Mozilla/5.0 (Windows NT 10.0; Win64; x64) AppleWebKit/537.36 (KHTML, like Gecko) Chrome/141.0.0.0 Safari/537.36" version="28.2.8">
  <diagram name="Page-1" id="cOBxGfW91fyzzpJu_qV-">
    <mxGraphModel dx="1426" dy="777" grid="1" gridSize="10" guides="1" tooltips="1" connect="1" arrows="1" fold="1" page="1" pageScale="1" pageWidth="850" pageHeight="1100" backgroundImage="{&quot;src&quot;:&quot;data:image/jpeg;base64,/9j/4AAQSkZJRgABAQAAAQABAAD/2wCEAAYGBgYGBgYHBwYJCgkKCQ0MCwsMDRQODw4PDhQfExYTExYTHxshGxkbIRsxJiIiJjE4Ly0vOEQ9PURWUVZwcJYBBgYGBgYGBgcHBgkKCQoJDQwLCwwNFA4PDg8OFB8TFhMTFhMfGyEbGRshGzEmIiImMTgvLS84RD09RFZRVnBwlv/CABEIAn4DUgMBIQACEQEDEQH/xAAbAAEBAQEAAwEAAAAAAAAAAAAABQQGAQMHCP/aAAgBAQAAAAD9LQOwAAAAAAABOgYaU210gAAAAAAPTx3mnln76duNyn0QAAAAAAAE7m5Wts7MAAAAAAD5lWw7Zmu90QAAAAAAAAAAAAAAAAAAAAAAAAAAAAAAAAAAAAAAAAAAAAAAAAAAAAAAAAAAAAAAAAAAAAAAAAAAAAAAAAAAAAAAAAAAAAAAAAAAAAAAAAAAAAAAAAAAAAAAAAAAAAAAAAAAAAAAAAAAAAAAAAAAAAAAAAAAAAAAAAAAAAAAAAAAAAAAAAAAAAAAAAAAAAAAAAAAAAAAAAAAAAAAAAAAAAAAAAAAAAAAAAAAAAAAAAAAAAAAAAAAAAAAAAAAAAAAAAAAAAAAAAAAAAAAAAAAAAAAAAAAAAAAAAAAAAAAAAAAAAAAAAAAAAAAAAAAAAAAAAAAAAAAAAAAAAAAAAAAAAAAAAAAAAAAAAAAAAAAAAAAAAAAAAAAAAAAAAAAAAAAAAAAAAAAAAAAAAAAAAAAAAAAAAAAAAAAAAAAAAAAAAAAAAAAAAAAAAAAAAAAAAAAAAAAAAAAAAAAAAAAAAAAAAAAAAAAAAAAAAAAAAAAAAAAAAAAAAAAAAAAAAAAAAAAAAAAAAAAAAAAAAAAAAAAAAAAAAAAAAAAAAAAAAAAAAAAAAAAAAAAAAAAAAAAAAAAAAAAAAAAAAAAAAAAAAAAAAAAAAAAAAAAAAAAAAAAAAAAAAAAAAAAAAAAAAAAAAAAAAAAAAAAAAAAAAAAAAAAAAAAAAAAAAAAAAAAAAAAAAAAAAAAAAAAAAAAAAAAAAAAAAAAAAAAAAAAAAAAAAAAAAAAAAAAAAAAAAAAAAAAAAAAAAAAAAAAAAAAAAAAAAAAAAAAAAAAAAAAAAAAAAAAAAAAAAAAAAAAAAAAAAAAAAAAAAAAAAAAAAAAAAAAAAAAAAAAAAAAAAAAAAAAAAAAAAAAAAAAAAAAAAAAAAAAAAAAAAAAAAAAAAAAAAAAAAAAAAAAAAAAAAAAAAAAAAAAAAAAAAAAAAAAAAAAAAAAAAAAAAAAAAAAAAAAAAAAAAAAAAAAAAAAAAAAAAAAAAAAAAAAAAAAAAAAAAAAAAAAAAAAAAAAAAAAAAAAAAAAAAAAAAAAAAAAAAAAAAAAAAAAAAAAAAAAAAAAAAAAAAAAAAAAAAAAAAAAAAAAAAAAAAAAAAAAAAAAAAAAAAAAAAAAAAAAAAAAAAAAAAAAAAAAAAAAAAAAAAAAAAAAAAAAAAAAAAAAAAAAAAAAAAAAAAAAAAAAAAAAAAAAAAAAAAAAAAAAAAAAAAAAAAAAAAAAAAAAAAAAAAAAAAAAAAAAAAAAAAAAAAAAAAAAAAAAAAAAAAAAAAAAAAAAAAAAAAAAAAAAAAAAAAAAAAAAAAAAAAAAAAAAAAAAAAAAAAAAAAAAAAAAAAAAAAAAAAAAAAAAAAAAAAAAAAAAAAAAAAAAAAAAAAAAAAAAAAAAAAAAAAAAAAAAAAAAH//EABcBAQEBAQAAAAAAAAAAAAAAAAAEAwX/2gAIAQIQAAAAAAAAAAAAEdGgAAAAAAAA51moAAAAAAAAAAAAAAAAAAAAAAAAAAAAAAAAAAAAAAAAAAAAAAAAAAAAAAAAAAAAAAAAAAAAAAAAAAAAAAAAAAAAAAAAAAAAAAAAAAAAAAAAAAAAAAAAAAAAAAAAAAAAAAAAAAAAAAAAAAAAAAAAAAAAAAAAAAAAAAAAAAAAAAAAAAAAAAAAAAAAAAAAAAAAAAAAAAAAAAAAAAAAAAAAAAAAAAAAAAAAAAAAAAAAAAAAAAAAAAAAAAAAAAAAAAAAAAAAAAAAAAAAAAAAAAAAAAAAAAAAAAAAAAAAAAAAAAAAAAAAAAAAAAAAAAAAAAAAAAAAAAAAAAAAAAAAAAAAAAAAAAAAAAAAAAAAAAAAAAAAAAAAAAAAAAAAAAAAAAAAAAAAAAAAAAAAAAAAAAAAAAAAAAAAAAAAAAAAAAAAAAAAAAAAAAAAAAAAAAAAAAAAAAAAAAAAAAAAAAAAAAAAAAAAAAAAAAAAAAAAAAAAAAAAAAAAAAAAAAAAAAAAAAAAAAAAAAAAAAAAAAAAAAAAAAAAAAAAAAAAAAAAAAAAAAAAAAAAAAAAAAAAAAAAAAAAAAAAAAAAAAAAAAAAAAAAAAAAAAAAAAAAAAAAAAAAAAAAAAAAAAAAAAAAAAAAAAAAAAAAAAAAAAAAAAAAAAAAAAAAAAAAAAAAAAAAAAAAAAAAAAAAAAAAAAAAAAAAAAAAAH//xAAXAQEBAQEAAAAAAAAAAAAAAAAABQQD/9oACAEDEAAAAAAAAAAAABL29wAAAAAAABCp6gAAAAAAAAAAAAAAAAAAAAAAAAAAAAAAAAAAAAAAAAAAAAAAAAAAAAAAAAAAAAAAAAAAAAAAAAAAAAAAAAAAAAAAAAAAAAAAAAAAAAAAAAAAAAAAAAAAAAAAAAAAAAAAAAAAAAAAAAAAAAAAAAAAAAAAAAAAAAAAAAAAAAAAAAAAAAAAAAAAAAAAAAAAAAAAAAAAAAAAAAAAAAAAAAAAAAAAAAAAAAAAAAAAAAAAAAAAAAAAAAAAAAAAAAAAAAAAAAAAAAAAAAAAAAAAAAAAAAAAAAAAAAAAAAAAAAAAAAAAAAAAAAAAAAAAAAAAAAAAAAAAAAAAAAAAAAAAAAAAAAAAAAAAAAAAAAAAAAAAAAAAAAAAAAAAAAAAAAAAAAAAAAAAAAAAAAAAAAAAAAAAAAAAAAAAAAAAAAAAAAAAAAAAAAAAAAAAAAAAAAAAAAAAAAAAAAAAAAAAAAAAAAAAAAAAAAAAAAAAAAAAAAAAAAAAAAAAAAAAAAAAAAAAAAAAAAAAAAAAAAAAAAAAAAAAAAAAAAAAAAAAAAAAAAAAAAAAAAAAAAAAAAAAAAAAAAAAAAAAAAAAAAAAAAAAAAAAAAAAAAAAAAAAAAAAAAAAAAAAAAAAAAAAAAAAAAAAAAAAAAAAAAAAAAAAAAAAAAAAAAAAAAAAAAAAAAAAAAAAAAAAAAAAAAAAAAAAAAAAAAAP/8QAMhAAAgIBBAEBBQYGAwAAAAAAAQMCBAUABhESEyEHIjJBUBQWIyQxURBSU1Vx0pKk0P/aAAgBAQABPwDJZOnjFKlau1q5e0IQbE/Gub5xJhAy+XbrrbW9cNuOglws161sONazSZYWZpswPWSwQffHPwyH1HLZNOHxtzIPS9sEL7FddRc2Z54EIQj+spE8DVbfGEdVsvsLu1JV33U2VNryYUzoL8rhOVfyw9I+o4Prqp7Q8db/AAY4PMi+XIXHGzUmFmYsV5WoTHLegHSBJBPI1d3li6mEwmZSi1dTlHU0011wsMnO78APllAR1D2i4MZPD4q1Tv1Ll7I2cf0fBfCLNeC59GGE5A9/LHoYawO6sVuO1n61AO7Yq+ab5zAEJsjzyV8Ekx+l2HrrIa9gYYLiZELXNsyB/LBYMpH9gBzpe/MU5WOeqhkJosVqNlrxBQhUTfaUpm4GYPvGJ+AHgahvvFld106OQWlNa5ZS6a4dLaqbAlkkgTJ+KQ47iPIIOsfuWrk7Faqinb80o2ZWISEPygrNlXIcRIjmbIGMOvPbgnWU3QMfdbUhRk0rEe0y0LHacRPgDrLkcEa++sv7V/2R/prG7sr3Laq1lEapaeiZzfGQmz5L9RH3pfLSs/jH5y3g12Fm5WrKc6HePMfNz0hxzyZGMTI/sP4ZvB43PVlIyOPTcWlwsLQ+RCZtXGQgGAA8x971BB1tX2bbawFBP2rB4q1kZPNp9o1IHq+Z7EI5H4a4fpAD6jlqly9jrVajlG0LM4Dw21wiySpxIkD0n6SHpxIfMaw21snhaVhFPPqqTa+0/wAVOhBdKE3ICoCCJmZEFyHfgSHaWqOxstj0Yxi89QZkKFyVtVydB5L2vRND52u1mRZKYkOCCOurewKNrbO2dt/avymMs0Gs7q7i1CoeZwkORx5NZX2e4q0mgnFeDFLqU7q0Rr1/gsPmlqrIIlH31TQDraWzl7Tnk/FkDYhZhRiAVdCDUQEymTyeSw8zP0v9v8jVf2fXKlHHY9WdSa4oYulf7VCZvXjXTdDxHycLM+5jLkHWI2g2haUbl9FylVq36lKsa3QhF9sWzg+RlIM4EBAcAaTsIodhrMMgiDUPg+z0rdAZwbBvFbgjxQ6w8PHr+HrMbYu3Mg+1WfX6NCyYs7xMZQgIEDrGQI93X3Py39al/wA2f6aobM5u035WNZy6j4WkQhJh4sLPK5nkQ+DVTbGLp7hye4IV0/bbaVIM4qjDquHqfUDkynI8ykf/AAJz/8QAHhEAAwACAQUAAAAAAAAAAAAAAQIDABFQBAUTIcD/2gAIAQIBAT8A5OnWwm7I29jJUWqB0Po8rbt6Wo9PIQWyEhCSzB3r4Hb/xAAdEQACAgIDAQAAAAAAAAAAAAABAgMEABEFMVDA/9oACAEDAQE/APTn5elXleKRmDKdHQyvYjtQpNGSVbr1bXBQ27Ek7TuC56AynWWnXjgViwXeifgdv//Z&quot;,&quot;width&quot;:&quot;850&quot;,&quot;height&quot;:&quot;638&quot;,&quot;x&quot;:0,&quot;y&quot;:0}" math="0" shadow="0">
      <root>
        <mxCell id="0" />
        <mxCell id="1" parent="0" />
        <mxCell id="jnMrhNGRFh2m6yNDJavP-1" value="" style="image;aspect=fixed;html=1;points=[];align=center;fontSize=12;image=img/lib/azure2/security/Key_Vaults.svg;" parent="1" vertex="1">
          <mxGeometry x="360" y="330" width="58" height="58" as="geometry" />
        </mxCell>
        <mxCell id="jnMrhNGRFh2m6yNDJavP-2" value="" style="image;aspect=fixed;html=1;points=[];align=center;fontSize=12;image=img/lib/azure2/identity/Managed_Identities.svg;" parent="1" vertex="1">
          <mxGeometry x="200" y="326" width="68" height="66" as="geometry" />
        </mxCell>
        <mxCell id="jnMrhNGRFh2m6yNDJavP-3" value="" style="image;aspect=fixed;html=1;points=[];align=center;fontSize=12;image=img/lib/azure2/management_governance/Automation_Accounts.svg;" parent="1" vertex="1">
          <mxGeometry x="40" y="326" width="70" height="70" as="geometry" />
        </mxCell>
        <mxCell id="jnMrhNGRFh2m6yNDJavP-5" value="" style="verticalLabelPosition=bottom;html=1;verticalAlign=top;align=center;strokeColor=none;fillColor=#00BEF2;shape=mxgraph.azure.message;pointerEvents=1;" parent="1" vertex="1">
          <mxGeometry x="660" y="230" width="50" height="37.5" as="geometry" />
        </mxCell>
        <mxCell id="jnMrhNGRFh2m6yNDJavP-15" value="" style="verticalLabelPosition=bottom;html=1;verticalAlign=top;align=center;strokeColor=none;fillColor=#00BEF2;shape=mxgraph.azure.message;pointerEvents=1;" parent="1" vertex="1">
          <mxGeometry x="660" y="430" width="50" height="37.5" as="geometry" />
        </mxCell>
        <mxCell id="jnMrhNGRFh2m6yNDJavP-18" value="" style="shape=image;verticalLabelPosition=bottom;labelBackgroundColor=default;verticalAlign=top;aspect=fixed;imageAspect=0;image=data:image/png,iVBORw0KGgoAAAANSUhEUgAAAFcAAABPCAYAAACeTVmaAAAAAXNSR0IArs4c6QAAAARnQU1BAACxjwv8YQUAAAAJcEhZcwAADsMAAA7DAcdvqGQAAB9dSURBVHhejXx7sJ1Xdd9vfeece+5L8tWVZNmSsCRLflu2JYPtkAzxxJACtQztdBJef+TRKWGgk0dT4wQHkhmYpHTSZgiEpjhpEupJmcYJJlCmjg0hNiBcG4XY2Jaxrbd09bjyvdJ9nsde/WM99trfOYYs6Z777b3Xe6299v72951LzMxggAkgAAwBClcGDJYWE0AsY4ZmtGS09lnnWfZEYGS23i4wQm8xKPwYVGg73AqDknvU2EeYAfqhyjiIb0qEKqulCGw8KCjHrjpDomBKc0YFaYCEjvXThwNk3pn/4O/htohwJsPVvgI/jxWy60pziRe1z86M1xmidAAgNgQWvsyoZITEeQNKR6EaUR32KEWeUHdpgDyWrAoaGA9WfqoY2QcHJGUZ6UBBPgPMbPYE3JgY4TcHnV131c8Y2DRWu93oAHlOGATlQGCCOlfHmEiys0bHEMGl8UXgVR9TRhBNdwueW+MDWX9rMESPoeORzsBEEokYxRFpGm5WxEKWKg3VjwSnNF1a7IGKILTmG1CYicquMlnRoGgbYHVQpyMkLa0r41h2ikE5AoYwvD4Lzwxmv4ZScS2zStwMboW3RTcNcNCzoNeMLOV7bfMxIi2bNeFsrNUOZJYAyDI3mpIh8hLGys6nfaALF3JZc47/SE+sa6ZbGZYs3Q02XHeyfHpecX0xEAHO31lGXQK9OZsZzJlWoKSB+1S94NUja0bMpiopQyGIzjFGBnGUtVxY5sfV3pCtjtdX0+yTvAuxmZGFBL7BvDxRxTCdmSKvcILKNJ4hIUyrjGnpovSU1wzWtnqtZo06V+mtn5J6tNftYmZmBqdmTqGz2oHyFCTnooJJrHEToi3qlZoeeURpofxt+qpX1FFZhhgY3VG6JnithMjLIdNSrb5aYILHcvaqjl6elHJ8bBxXbLsC69ZNo9GolIemMAOUEvPS0hIeffRRPPHEEzhx4jg6q6ul0uqpbG9Zf7MiQuIyXN/QqIIf3bvBaCKkJLzq2WnXBSsCWPFRkfD0WSiGZge7sp6VliIWQGmp85lzlpI6N+WkGh+fwNVXXYV99+zDDTfciFarlRORAVpeWeG/fughPPC5B3Ds+HGsXz+NK3fsQNVoKFaGHNR8FZ0begPUDDMwLdwJeUiMyqRUx3cLgiXM6lzp9ywjGS/IbCiyDJrWwXjFcCwuLePY0aNYXFzAbbfdjvvuuw/XXHM1qkYlQhmgQ4cO8Xvf+z4sXLyIG3ffgH333IOtW7aiqvIuzcHmTvCXzgB1gH1Ij2WBD/lIxIPUWluRFc+QM1/vKnmpM0FW7yKGYNV7YA6NzDW73bQwJpmfqymDsbS0jBcOHsRD//uvcGpmBu9+97vwq7/2a1izZjLPrb/4i8/zzit38Zt+8k7+9v5vc7/f55SYU2Jmlt8pJWZOnFiu5Z/0pKQ/NvZaP4Gq4KtdedwHdXw4n0wvPAqdeAjda/2wqaTUYUx0eW27Ll68wJ/4+Mf5x+64g19/6+v51KlTRsIpJa5eeukHmJicwIYN67F3761STz1lJILSp3GL12HcMoigbbnSzb20rU8INRO0i0CSwZaJPhB4GB/NOpIPv4HJVCJDhx3Pfke9xNactdIvOjBYeNd1INF7YmISr3/DGzA2PoaZmRn0e/2ivle9Xg+tVgsjrRE0G03XyJwXwaYXaSObIwyJdEum/J2HyQsNd+zAVJRpLEY5UQbxgFNZvfQxaIC8Ux3NhhAKLMPPBCTURiQOJiar3gpKxFILmRmTk5NgZvRT32USM4iAillWaOakIoZDLvryL7tEqYyx9VMwsMY0qovasGSGnHMUoHWvdJoYUQfLPL+91WYG5RN0LDdmwYbgciMwLzGAqqryDioAM1CJEjUDa4axKyyiqJZWJkrISBeXHwZiyhBzFGSql12lFO0M19pkBOdkXNMt5ic8ZjU+fqcXFm8bclWEj6ARONmojsnBDUvWRs/bFsDwvY7ojCAbiMZq3WW9doqMmfFY4h8UL8xjc38dzDVhbBiaO0twZR+RtYj3aJlb1oBJmjYjowixMWQjM6iSGcRaKkCy9auICFVVlWmtWyPhFlLeFhIbKOInAktHynXGt4Ki2me2JZhhPmafYXZYvxkV+Jhv2T7UW6yU5HeXogPVMty4k3YMzGQzGdmhUl7NV+KVKk+LwIGi0wKYVCBwz8oDrIpm2pD0OWPCrENMgozoHGQsmytXyjuMugOcmeL46m/OkgwpHZY1KExEaXMWke0jbVNlLU0B0iNHydIsIH+GvkIZ5LGwbnhGFuNZOx+NHtfMA8oMyRqx/xS3w26KmCOYeiempUuWnlJxpsHzahlQ/etjrog6Xq9lzHTLqICuSfkxT1ztsuIZZJESyIaE0eCEQbBp2+0lzC/1cGa+h2NnO3j59CpemlnBoTMrguhCQy3kvDoXENQ5N9fDK2dWcfh0B8dnOzg938X8Yh+dvj6hCOgEjXeRupJpOcfCGJkTow6yoLPusRn5fIOReVfurJTyYNSmgCykMJfFCYQy8iau0084MbuKR5+5iE/+7Vl88E+O4ac/8QJuufd57P7wC7jjw8953WKW7ILpGAXZBFIZDKDPjN/9s+O45cMHsffeF/G2//QyfumPj+GTD5/BY88u4PDZVax2EjjFAxwAgzkdjH6tYJpFkIXMggWJmCzStq7YY56AReKnIfzrneFaSwPbtVcRxsJywhPPL+C+B0/i5z57GP/1787ikVcWMdOv0LykidF1I+Cxti6ime3AzGDJFDHEdNUdR6vCyPom+BLg+EoPjx1bwqe+dg7v+4NX8KE/OYZH/nEery72nF/mG5wZgpolqxV5Fc/geoquZNgBTx7zJHYBQL32hYZfxz6BwvXKYHE54avfvYDf/MsZ/M2zF7E0UqHRFqyUGCnpSqv88hNUyCxwjXXa+mjGgoojBjgB/QQkZlCb0Buv8A+HF/EbXziFh/bPYX6pX2eQQWVxsQ1U/jWkotcWZLIMEz+SZO6gyrGr3LHa9ZDCH4HlLPTAK8v4zCPn8P1zq2i07JTN6pTur1mmEigbSPCUMM2VbxZh47KVZHDqA5DH2ZU6HACo1cDRxT4e+PtZfOP7C+jb2W9wk2LqVkquXxsK1wKmSgJIdwpSIIDKdgp2QC2JoiEc5sHa0h5VhW2iAby60MOjz87jwIllVE1VSLPCWIsTGdxNYYbkmmXg14UvMkbVBHTJyCi++hOqBuGFsx18+bvzOHG+6/wFN0pTLXKzfqGtmoayu5O6q4fqpIEuBIStdiauA8P3Xxkrn04BjJOzHTx7bAVJHRuVSZ0+qi5jx5ombtrUxu3bx31qU6irZuhwTXKd2Lq+jVs3t3H9+jZGmNBfTUg1ImoRDhxfxjNHloBiBxF3I6J70SwvhoPfPJSdlTgpRkaVNgsNDMWKe50XYjIROh1gZZXRaBR7HKQu4523TOH+fZfho++4DB/btwn3/5tNQFgUvQarjKjdABDjrXdM4aP3XIbfvucyfPQdl+J9t09hJMlxIZSeCDg+38XJuR6gC6E8EgrAXNR91GS7C8IOWpIhP9yFh4pRidcrVNXgY50fBnW9RFKOeq/P6PQDknr+2o0tfOCuDfiVt1+Kd/7YNH7q5ktwx7VrdStjcdPs1ZgMiWPOPAJ2bRnFT1y/Fj+99xK8/y0b8Mtv24g7rhwH9yVxhJ6w0gM6xfM5G1EYsiuIzaF62NbLH8dbEAiVhbUaSGuUcbMs0L1oHbt+l5dY6iCpwxlS9Hdd2sLW6SaaDV14kI8NLWDiuJx5BkEb7yDWw2t5hIYGVbh0agQ3bBsDurK4GFSV2amZR8rEPm2f7RQ/GoxO6m0OOPJNRN4OlTDEOrtXr20YSkzzZsmTAbRale7/LEs0h2xRcF7y+VoySFRxUT6m9W90pIEk54ABhFsUHzdWto/OW7EfDUYtWZsVYruJGJjirwW1WRPN53qaQbI82e5AOnzMomyOteAahhioOxDl5Wx0rMBV8WT+JKUnocgQ+LC+fKh6idNZOSqWCHdq5xW7ILsr4SOzheLZAupBdii45CaHhtsmbVZ29mKfxlNGqwp6hJTJw2orjpZg2ZROScsMM/rM8mKc7i4Ecq7ZXZ4sWH53D9j+F5CtktY2k+2aMwGs5YSVoF4yo+2QcTu2Nf4AIM8omMGUD8xLWs8hrS3aInGAb2Mk7H5p6rB16Na5is/nwsYjiJNfXnYYf/vkebz9dw7iA589jIe/O4/Zpa4GL992kqCCAFQQY6F1O0/9fObKkNOrSMeukDrbFVUky+CotHVZmZFogeX2V3oJlROTf9RAlbJBD6gKcgdZH0EyN+yJKb8zIVyULmdhKXqhyzhwooP9J1bx188v4P1/fBg3fOD7+MifH8O5eTkvcHxC3uBrp21gWPsYWg6yGRnX+ESaYFiufKp92B0lc7RNPTCquJAJXrBSLykYH/JY2lpnELbiKDIyL5aiiwVTuaiOmVhA9GQ8f3gF+19cRmoRugystptYBHDzVZNYO94Y0LeyuuDdscZKHSDoma4OsJWioJOSCmj25wIn2kvpyL/ZjRKMiqgCkezIvOx6+gfFFbKiekHIhc4RGIkYfVNSUzwRo88JnMRk92fhWD16BNBn4NkTi3j6yAKoKccgVUXYtWkUV29qo9UQua4TSalInNBDiitKmHXBhhCDYeufqB32Dk4oxMwsfMNiK2VHolUxWM46M4vBAm6KaOYxhz0dcpqyNiHvq6GnLFMC+pCssb2tKFeIAACte8Ls5FwP3z28guVOArTkpaU+3nLLBDZPt0SXEBv5LfveZiIghTVB16rsPXEAmbkqFsHp7PyVSxAk9VtsMj+wEatP9M3yUElzYYm5VUxdwYujEGx3FqHTYyx1kvbJ6kzMGG010Ki0NJQMMiifIyeX8dRLC2iMNcQRRGhXjDddPYmNUy1PN3UVoLq1G4RtG0fk/NF6CWBO6KeUJ2asHgqqrvqjbuMQqDRbPQBZJ3lA6ZALNEKgrGFOVS5AUAZMSCSlZaWb8MrZDo7MdpAgj54rYrQTY88VY7hkvAEKtM4jcF3pJjw3s4rnTnd1m8ZIfeCOK8exfeOI34j4Yqn0TMB4i7D78jYuGZVyB33U3e0wTpyTR0CIpgQwp5pC8unaKoSAepIplQ6QzlLAjxxzKKPBJWR1fJiA5W4fT75wEd85eBFfeuo8vvT0HDoJmp4VEhNu27UGb9w5jsl2fgDiQSuyiHBytoNvPLeA1NCaRgB3Et5w1Ti2bBjJTjD6CBVhy7oW3nX7OjT9/JZRNSt85XsX8T8fP49vH1zE/oMXcXGpJwsam8scXZUyJw9I8R6jKuywl0IioqWAxarwr/rfEEj7GMC5+R4+9N+P4t//+TH8h7+cwddfXETVInAPaPYYN24Ywb+7axo7L297Lctma7S1nZhxYraLp19ZRtVScQxsmmxgzxUTmJ5oimv17DTzUo4MbJpq4efv2oA7d4xhJBFSAlJFeHmuh098+TQ++D+O4YP/7QgOne5k54T6aU6yXflASg36WsDOOuw8lyEvNglkKqklBqyHM4W7JTGZ0ekDz8328dJSwkUCqnYFAvC6tQ2886ZJ/Na/2oS33LQWoyOy6ltgzKle6pmxsJJw4PASjs6typSGHKj/+K5xXHP5qArWX+4ZSHaxdBIB124dxf3/ejN+ds9a7FzXRIsY1CAsV4RDiz28cK6L1b6tN765zbyVdQmCXfgpXBHBzxnkRTxI1AoofahgTAcHmRgJCanP4L6kMzMwPVrh7XvW4k3Xr8FE225ABdyf4g+hAWHm1VV8+R/n0BjNt68tALdsG8PWjSO+EhKgt9hCHBdUAGhWhGu3jOKte9Zg41gF6uucsdtpiCPkn+4M6h4lCbiA/Gb9KNYrX8jyKZ8WP5leBbjlgWEY9DZLuwKBmoSqUYH0yVwC8INzXXzusVl85ek5XFjuR0qPlThJfnqJcfhcFweOrAIN7WTC9o1tXLe5jbFWtp491PZyYIwdYXEl4e/+aR6ffuQs/mmmi47WVapIjh91FklQc1U1Z2c58b3h4F2SPrHIxvIWU7+C4hSD4FkSzgRyoJxnk4BNzQobm0C7T+h3GVUFLBPwrWMr+M9fOo3HnrmIpW6QwxI8Z8OMheU+vn1wEav5jgapy7h12zhu2DbuWhLnkhD1shOuTo/xrRcX8Xt/cwpPHF7CMqQkcB9o9oBLGhU2jhCaVXwwaTqVPHPMBlJQe7P7xN8EgPM3KOP+9p8NSkIAptc08Klf2Ir/8u4t+N2f2Yw3X78G/a7cwVCrwovn+/j8N87jyOlVV8QP2GWpBkA4v9DDw9+ZB41qPwHrxhu4eesYNk2NaJiDxc6rUAln5jr4/Ndn8cxsF9WIvhuWGNumR/Arb92AP3jvZvzhz78OOzaOCF1g4KdkHkn3mlzGa89xe6FFgs62FRPcekw0hMVPGCVziDCYGG3g7tun8C/3TuE9b5zC3TevRbsS4WAGtYBv/mAJh852kDS7vFpqWer0Er53dAUvn1vNRvaAqy4dwU3bR9Fq5JfqVAv3pu9zIVu3mbkuHnnmAhojlRw9EiF1E/btnsAH3rwB73j9Jbj7tnWYmmyJnBCozM86dA2xnjgW9GG11Sq4nIoBQBpyuwJ42OruJeTtinRI3asIaDcrbJhs6AIGE4vFbg/PnlzGhZX86pTtSBiEpVXGV5+eA4/JTgMgICVcf/kIbtw+XtNA66Ld1/vWCegl4PRCH/PdlG3XBejyqRbWTzSkzIlpebLHwJEdV4Yu9YTJqTvMdVaj8tFGWMilTyUrSM0NzDz71EypADKT9evwFexa9qRoEE7N9bDcTc7JKgKDMb/Sw1eenkPV1MNwYmyZamHP68ax1u62fMLkNSAuKawPR+eWk7xSr72G6ys8CZ1YWa4nOVpms851vSZ3vHJQnqz2Gn1laVw6cgiYwNhUIOiibrNUceWMWK4rlbzSTUgpG0uqd68P/J8D83gVDbAGJnWBHdMj2LNz3LipM/LJmTASA804BuTNGnUIQV/mti6vi6JDtKWwS7/bBlYDI/hBuxidPahbMZakUrWFrUfWYfgKSYinWipYLAdLkqIVFwcV2pU3mLzPoNfr46tPLmJ0bQVOcmTZaADXbBrDTdvGwsoLka4W+LM7Ky8cGgpiuP7TYDBEN0dANp7twxyI7EABy2TlwYaiQWbpsCUnk/nCZr9VgPZHXOnQjFDfiiGCb+eaBvYVIhiO13JGv0+gTg/90x2kxS4AYMf6Fu7Y1ZbtkmmihzDQjIxONL724NFkmLdY7/aEgf7YGEPWjegDt9k4WcWtO0IKBEMPzDXBZOXgpEa7awbBpp1eq7VAeAHYEYH8fCqoBsrZXrIgrBlr4OGP7cKJz92EL/zyVXjfNZO4eaqN265fJwSmNCxrxJxh2uY+EvlVWOrNelIPkOIZEUcOluE64GVPFxYH4Wnnu2Cxv6oll4ArEcCZ5e2PaSzfzskOE/zMxqLN9vA3UNuF2Tw51sDb9qzBpz+0Aw/86nZsn27k6WtmqG5WmsxvEfqqp09b1AQiK2t/CSTWTzHIgidhzEmk01+5SemzEXU86cFNFeqGPLpQKgdnGd2X23V8khWpqnTVD7XO3s9SX8q17i5IXzhpEKFBcvdUec3OYEaaqvbjeCR7Z6TwBo3q5DmjyMJHO+MvVsUUyitZGcnXlJzJORy6FYu1whYgrmvrEEz1Fdc3LDJqFpnTRBdf5YexKkQ4C+ksVFGwVR85LwoWjWCw92ugI0eCVoiIWWc2ID/gGSVZkmn50NcIZFVkrRdZ50JA5mOdWvF0T2PlJSvvBO4AVHJvLw8oSzAHGZQuKG013axv8G1FRfA0zTp5cENW1nUphA3rcMVCbWCpbbmE6ZFjnXYYmEFAVl5KC6mTSzbyUhwhAbBbhqoinHq1h9mLPfRTCkd+ApF93JcOGO8O0U8iQF8nYjCWVxnPH1sGtQSH1XZjJH7JHeL6IMXruHvOw0POQHodQ5hKoiliBbbTm2EmGJSCJXJ56qttBUqzIow0o8flNcQnjyzjgb+fxYPfOI9/eOYCnnpxAc8eXVJ+YpLoJrS+oNdA+mRKHD+zggMvLeA7LyzgoW/N4U+/fg5ffGoeNOJPAARb30iREGhSKLDyclwvIQhhF8hOtyFVkgGER+2VNQbICl8H5r4HDAwZejeTfT/RJkyNVUDtOx6rAP7sm+fxH79wEh/9q5P47S+ewie/fFaN1h9jVDcrRDBq/H+fnMPHH57Bx754Cr/+v07id740gxOLvVJtyJlHu2n79jwmINOEbWxgXEDGw6AuTsZTVJQdsdxE2OLxGllSgmHUFcnVlgC87tIR7N46htSJb/hJCaIRwmoT+N5sB08cXcHXvr8QcH6IccXqnR398vEOHj+6iv0nVjDHCY2xCiTfDc1BSIyrN43gykvbyj5E0LSvbyVqYL2laiWur2vQd4HzbWBQKMjxeoJYqvK2quCvuJdNtXDXjWuwa/0IuC8T0RCI5MUSAKgaFbrdJIRBaxOTqZy1gtVZ6ZKXyIdnPQOYaBDecv0kbt05Dvjbl2KvA1kVrUdWcGJQ5DoMmwtDlx41QRQlIwslUKPh8SBRQhjaHk95GBoRGg3Cj183iX975zSumGyAe/LYJx82ahbr095iqkVW0fzghyxfHg0lnZKyJdJ6ysJljBlvu2EN3v0T01i/phmYyLiwNQ9pmYyyas7O9doclMeivrni1xCktg7uJIRQWIg6YoRiB0cQpieb+Jk3rsNv3nMZ3ri5jdZqH9yXZ1jiAwtoZKBZURgnIHrFBjQoqhUx0GBQQ3YraSVhUwP4pZ9cj3vv2YSrt7SBIaXPstX1Fx8L1PTgYrMZlCnwxAa9iXAURVcWJNeRMhstRRvIb/eJUyzqgrhxbQvvuG0Kv/9zW/F7P3s53nvLWly7tolqJWH1QsLKqx3055d1BmgGi62FvuLYmqUqv7fcRW92Fd3ZLjDPWN8FfmrLKH79rRvwp+/fhg/+i424evMoGvHdYCNXa9nZ29xViDLr4h3yALOVPQb9xn338aOPfQ07d16JBx98EJU9ulUSc3a+RZTeQoECVxqyT1Wv68jiah8XFnu4uJKw1ElIWnooMfZeNSF8WfDjFsxUJ9jUN7ai15FTy5hd7uu+jdCqgLVjFdZMNDA10fQv00iAgkouS5OpMCLDsG7WffX+/fvxkY98BAdfOIgnn/p/2LJ5s9hB+lUpQ0bIwhJ0J6EGC0lE0uvgBYJOfcUnAiZHG7h8fRtXbxnDLTvGsXfHOG69chx7d6ljIYi+aBcg+omfsiAiYNvlY9h75SRu3TWBvTvHsHv7OLZvamN6TROVliCjZyETjhQcC+StWM3+gTtAmFGKGojip/4BIf8T0JmQAUI4+NAPmUKccZXAY1JXJEejaPp6rUEzMM75zsxW5mwNoyyckYc5Kn4fQxwqi1Cc5SZHeFpPfZ0ZXGw50FHAN9ugR6sVoN+40aN+Vc2w7L9GVeqsnEO4LI+UcDcOpnFWzJxlpP53dGpGQ2fQ4FYv7zAcr6ATsBkDZFOCqAxsyOFspJg2XCMwnFIl2C287bBYhFbQzS7Hbzs6Q+kTXM0J++NCFjoDPbwxIK2bOmjydCzjALaHsj4LogVK5MkMKg01Dig1EVxVz/JAynHG8hlpSPa3zKLOfpX7/Bv2CuTf4tESU0Ha9t4C+6uemYmSivn+eERG4hQ1PKuVOWPFUc6H1I7gDjfOBhVXxpSPeoagGcNKE6E2k6VMCI5qWpL44Yp6kxQzMtF0YkMT17qfrBTFgyfXV1SWl58ZCZW/Yw5Tp2hbJsbo17TJhrg1YTza4djyWxwWR3SekJYBY+y25bBJf+lssVHo3XR7kmtjeX44DQw7ZnXI4GitfRfOtQ3bPEluXcdSP4FZDwb9rT8BZxjeoB4cdD18y2Yo2l3iap/5pJiuBa04If7YVemWIcy1X0wWR2bX1jh4ldPaH5JAguyoWRXVud/r+aT3v82jalfT0+uwvLyMCxcuYG5uTmqRbUChaa+pz9ZG6AvnqKKE0rKMWQGMeLLtE1fFaeVSfIHQWht+YqMcC7zVOJfJQZaoptdJdVFa/Sf/s16Zl/XL9yqYGYcOH0I/JYy0R3JlVUL65hPf5F/4xV/E9PR6vOc978Kdd96J8fFxFzAIojmzTqta0vxzwTgPI2fLmKHyA+haiJAtPwqEd26F+TgclG+dfeonnD5zBp/+w0/hueefx3XXXovPfPazWL9+2ucIzc9f4Pt/63587bGvo9VqYvfu3ZiamgInjSqJoe5oF6RqBm2lwGeFpFN/ez+BkVQBWegsWwbw61CzkIiQOPmpHhkbc4juN43Iye07ujpDKA6aLaw2W9sVE5xet4+XX34FJ08ex4YNG3Dvh+/FXXe9GSNtfWsSDOr1enzo0CH80Wf+CAcOHMDMzAyWl5f9dAmh8EucxYOFsyu9l1YF/U9UqWFWiwSMZw6Eukb46pvi7hPTIYtTkF0GJ/0+WPZLuMsM3nInqi2hfBi6H72SvG4qssTmKJeI0KiamN6wHjt37cS+u+/Gvrv3YWJy0vUCAOLE3E8JZ86cxuOPP47jx4+h2+mKrWW8MoQ6aQpLmdBhc1jWKNhYGoAqL5DE6hiHIMd56S5Crxl6UxOM8lqh6BY4aQccz4aA7EbkQEcUggSBqgrT09PYs3cPrrvueoy1R9XuHND/D95Du+mdDFoxAAAAAElFTkSuQmCC;" parent="1" vertex="1">
          <mxGeometry x="489.99" y="320" width="79.29" height="72" as="geometry" />
        </mxCell>
        <mxCell id="jnMrhNGRFh2m6yNDJavP-21" style="edgeStyle=orthogonalEdgeStyle;rounded=0;orthogonalLoop=1;jettySize=auto;html=1;entryX=0;entryY=0.53;entryDx=0;entryDy=0;entryPerimeter=0;" parent="1" source="jnMrhNGRFh2m6yNDJavP-3" target="jnMrhNGRFh2m6yNDJavP-2" edge="1">
          <mxGeometry relative="1" as="geometry" />
        </mxCell>
        <mxCell id="jnMrhNGRFh2m6yNDJavP-22" style="edgeStyle=orthogonalEdgeStyle;rounded=0;orthogonalLoop=1;jettySize=auto;html=1;entryX=0;entryY=0.5;entryDx=0;entryDy=0;entryPerimeter=0;" parent="1" source="jnMrhNGRFh2m6yNDJavP-2" target="jnMrhNGRFh2m6yNDJavP-1" edge="1">
          <mxGeometry relative="1" as="geometry" />
        </mxCell>
        <mxCell id="jnMrhNGRFh2m6yNDJavP-25" style="edgeStyle=orthogonalEdgeStyle;rounded=0;orthogonalLoop=1;jettySize=auto;html=1;entryX=0;entryY=0.5;entryDx=0;entryDy=0;entryPerimeter=0;" parent="1" source="jnMrhNGRFh2m6yNDJavP-18" target="jnMrhNGRFh2m6yNDJavP-5" edge="1">
          <mxGeometry relative="1" as="geometry" />
        </mxCell>
        <mxCell id="jnMrhNGRFh2m6yNDJavP-26" style="edgeStyle=orthogonalEdgeStyle;rounded=0;orthogonalLoop=1;jettySize=auto;html=1;exitX=1;exitY=0.5;exitDx=0;exitDy=0;entryX=0;entryY=0.5;entryDx=0;entryDy=0;entryPerimeter=0;" parent="1" source="jnMrhNGRFh2m6yNDJavP-18" target="jnMrhNGRFh2m6yNDJavP-15" edge="1">
          <mxGeometry relative="1" as="geometry" />
        </mxCell>
        <mxCell id="jnMrhNGRFh2m6yNDJavP-27" value="" style="rounded=0;whiteSpace=wrap;html=1;rotation=-90;fillColor=none;" parent="1" vertex="1">
          <mxGeometry x="340" y="110" width="410" height="440" as="geometry" />
        </mxCell>
        <mxCell id="jnMrhNGRFh2m6yNDJavP-28" value="" style="rounded=0;whiteSpace=wrap;html=1;fillColor=none;labelBorderColor=none;labelBackgroundColor=default;" parent="1" vertex="1">
          <mxGeometry x="20" y="69" width="810" height="550" as="geometry" />
        </mxCell>
        <mxCell id="jnMrhNGRFh2m6yNDJavP-29" value="" style="image;aspect=fixed;html=1;points=[];align=center;fontSize=12;image=img/lib/azure2/general/Resource_Groups.svg;" parent="1" vertex="1">
          <mxGeometry x="24.120000000000005" y="80" width="31.88" height="30" as="geometry" />
        </mxCell>
        <mxCell id="jnMrhNGRFh2m6yNDJavP-30" value="Azure Automaion Account" style="text;html=1;whiteSpace=wrap;strokeColor=none;fillColor=none;align=center;verticalAlign=middle;rounded=0;" parent="1" vertex="1">
          <mxGeometry x="40" y="410" width="60" height="30" as="geometry" />
        </mxCell>
        <mxCell id="jnMrhNGRFh2m6yNDJavP-33" value="Managed Identity" style="text;html=1;whiteSpace=wrap;strokeColor=none;fillColor=none;align=center;verticalAlign=middle;rounded=0;" parent="1" vertex="1">
          <mxGeometry x="200" y="400" width="60" height="30" as="geometry" />
        </mxCell>
        <mxCell id="jnMrhNGRFh2m6yNDJavP-34" value="Key Vault" style="text;html=1;whiteSpace=wrap;strokeColor=none;fillColor=none;align=center;verticalAlign=middle;rounded=0;" parent="1" vertex="1">
          <mxGeometry x="350" y="400" width="60" height="30" as="geometry" />
        </mxCell>
        <mxCell id="jnMrhNGRFh2m6yNDJavP-35" value="Azure Automation Runbook" style="text;html=1;whiteSpace=wrap;strokeColor=none;fillColor=none;align=center;verticalAlign=middle;rounded=0;" parent="1" vertex="1">
          <mxGeometry x="499.64" y="400" width="60" height="30" as="geometry" />
        </mxCell>
        <mxCell id="jnMrhNGRFh2m6yNDJavP-36" style="edgeStyle=orthogonalEdgeStyle;rounded=0;orthogonalLoop=1;jettySize=auto;html=1;entryX=-0.03;entryY=0.553;entryDx=0;entryDy=0;entryPerimeter=0;" parent="1" source="jnMrhNGRFh2m6yNDJavP-1" target="jnMrhNGRFh2m6yNDJavP-18" edge="1">
          <mxGeometry relative="1" as="geometry" />
        </mxCell>
        <mxCell id="jnMrhNGRFh2m6yNDJavP-42" value="Email&amp;nbsp;" style="text;html=1;whiteSpace=wrap;strokeColor=none;fillColor=none;align=center;verticalAlign=middle;rounded=0;" parent="1" vertex="1">
          <mxGeometry x="655" y="200" width="60" height="30" as="geometry" />
        </mxCell>
        <mxCell id="jnMrhNGRFh2m6yNDJavP-43" value="Email&amp;nbsp;" style="text;html=1;whiteSpace=wrap;strokeColor=none;fillColor=none;align=center;verticalAlign=middle;rounded=0;" parent="1" vertex="1">
          <mxGeometry x="655" y="470" width="60" height="30" as="geometry" />
        </mxCell>
        <mxCell id="jnMrhNGRFh2m6yNDJavP-44" value="Resource Group" style="text;html=1;whiteSpace=wrap;strokeColor=none;fillColor=none;align=center;verticalAlign=middle;rounded=0;" parent="1" vertex="1">
          <mxGeometry x="56" y="80" width="100" height="30" as="geometry" />
        </mxCell>
        <mxCell id="jnMrhNGRFh2m6yNDJavP-45" value="" style="verticalLabelPosition=bottom;html=1;verticalAlign=top;align=center;strokeColor=none;fillColor=#00BEF2;shape=mxgraph.azure.access_control;" parent="1" vertex="1">
          <mxGeometry x="330" y="130" width="50" height="50" as="geometry" />
        </mxCell>
        <mxCell id="jnMrhNGRFh2m6yNDJavP-50" value="Access Control" style="text;html=1;whiteSpace=wrap;strokeColor=none;fillColor=none;align=center;verticalAlign=middle;rounded=0;" parent="1" vertex="1">
          <mxGeometry x="380" y="140" width="60" height="30" as="geometry" />
        </mxCell>
        <mxCell id="jnMrhNGRFh2m6yNDJavP-51" value="" style="image;aspect=fixed;html=1;points=[];align=center;fontSize=12;image=img/lib/azure2/general/Subscriptions.svg;" parent="1" vertex="1">
          <mxGeometry x="24.12" y="20" width="25.41" height="41" as="geometry" />
        </mxCell>
        <mxCell id="jnMrhNGRFh2m6yNDJavP-53" value="Subscription" style="text;html=1;whiteSpace=wrap;strokeColor=none;fillColor=none;align=center;verticalAlign=middle;rounded=0;" parent="1" vertex="1">
          <mxGeometry x="60" y="25.5" width="60" height="30" as="geometry" />
        </mxCell>
        <mxCell id="R5dBVeU6ivvwKWo9LEAk-1" value="" style="image;aspect=fixed;html=1;points=[];align=center;fontSize=12;image=img/lib/azure2/other/Arc_PostgreSQL.svg;" vertex="1" parent="1">
          <mxGeometry x="79.99999999999999" y="860" width="65.08" height="68" as="geometry" />
        </mxCell>
      </root>
    </mxGraphModel>
  </diagram>
</mxfile>
